<svg t="1711025290511" class="icon" viewBox="0 0 1024 1024" version="1.1" xmlns="http://www.w3.org/2000/svg"
    p-id="21808" width="200" height="200">
    <path
        d="M128 789.333333l512-509.866666c29.866667-29.866667 76.8-29.866667 106.666667 0s29.866667 76.8 0 106.666666L234.666667 896c-29.866667 29.866667-76.8 29.866667-106.666667 0s-29.866667-76.8 0-106.666667z"
        fill="#FFDCB4" p-id="21809"></path>
    <path
        d="M584.533333 433.066667m-330.666666 0a330.666667 330.666667 0 1 0 661.333333 0 330.666667 330.666667 0 1 0-661.333333 0Z"
        fill="#ff3351" p-id="21810"></path>
    <path
        d="M765.866667 716.8L298.666667 251.733333a70.826667 70.826667 0 0 1 0-100.266666l2.133333-2.133334c27.733333-27.733333 72.533333-27.733333 100.266667 0l465.066666 465.066667c27.733333 27.733333 27.733333 72.533333 0 100.266667l-2.133333 2.133333c-25.6 27.733333-70.4 27.733333-98.133333 0z"
        fill="#FFDCB4" p-id="21811"></path>
</svg>